<svg width="48" height="48" viewBox="0 0 48 48" fill="none" xmlns="http://www.w3.org/2000/svg">
  <rect width="48" height="48" rx="8" fill="white"/>
  <path d="M24 9.5c3.54 0 6.71 1.22 9.21 3.6l-2.85 2.85C28.9 14.5 26.6 13.5 24 13.5c-5.83 0-10.64 4.7-10.64 10.5s4.81 10.5 10.64 10.5c4.28 0 7.94-2.66 9.25-6.44H24v-4.12h15.44c.16.8.26 1.8.26 2.76 0 9.22-6.18 15.75-15.7 15.75C12.32 42.5 2.5 32.68 2.5 21S12.32-.5 24-.5c6.7 0 12.13 2.43 16.24 6.54l-2.85 2.85C34.46 6.03 29.7 4.5 24 4.5c-8.56 0-15.5 6.94-15.5 15.5S15.44 35.5 24 35.5c7.25 0 13.5-4.82 13.5-13.5 0-1.01-.13-2.01-.36-2.99H24V9.5z" fill="#4285F4"/>
</svg>