<svg width="48" height="48" viewBox="0 0 48 48" fill="none" xmlns="http://www.w3.org/2000/svg">
  <rect width="48" height="48" rx="8" fill="white"/>
  <path d="M30.5 32.5c-4.8 3.5-11.8 5.4-17.8 5.4-8.4 0-16-3.1-21.7-8.3-.4-.4-.1-1 .5-.7 6.2 3.6 13.8 5.8 21.7 5.8 5.3 0 11.1-1.1 16.5-3.4.8-.3 1.4.5.8 1.2z" fill="#FF9900"/>
  <path d="M32.2 30.5c-.6-.8-4.2-.4-5.8-.2-.5.1-.6-.4-.1-.7 2.8-2 7.4-1.4 7.9-.7.5.7-.1 5.6-2.9 7.9-.4.4-.8.2-.6-.3.6-1.4 1.9-4.6 1.5-6z" fill="#FF9900"/>
  <path d="M28.8 12.2v-1.8c0-.3.2-.5.5-.5h9.2c.3 0 .5.2.5.5v1.5c0 .3-.2.6-.5.9l-4.7 6.7c1.7-.1 3.6.2 5.2 1.1.4.2.5.5.5.9v1.9c0 .3-.3.6-.6.4-2.1-1.1-4.9-1.2-7.2.1-.3.2-.6-.1-.6-.4v-1.8c0-.3 0-.9.3-1.4l5.5-7.9h-4.8c-.3 0-.5-.2-.5-.5z" fill="#232F3E"/>
  <path d="M12.5 25.5h-2.4c-.2 0-.4-.2-.4-.4V10.8c0-.2.2-.4.4-.4h2.2c.2 0 .4.2.4.4v1.9h.1c.6-1.8 2.2-2.6 4.1-2.6 2 0 3.2.8 4.1 2.6.6-1.8 2.3-2.6 4.3-2.6 1.3 0 2.7.5 3.6 1.7.9 1.3.7 3.2.7 4.9v8.4c0 .2-.2.4-.4.4h-2.4c-.2 0-.4-.2-.4-.4v-7.1c0-.7.1-2.4-.1-3-.2-1-.8-1.3-1.6-1.3-.7 0-1.4.4-1.7 1.1-.3.7-.3 1.9-.3 3v7.3c0 .2-.2.4-.4.4h-2.4c-.2 0-.4-.2-.4-.4v-7.1c0-1.5.2-3.7-1.7-3.7-2 0-1.9 2.3-1.9 3.7v7.1c0 .2-.2.4-.4.4z" fill="#232F3E"/>
</svg>