<svg width="48" height="48" viewBox="0 0 48 48" fill="none" xmlns="http://www.w3.org/2000/svg">
  <rect width="48" height="48" rx="8" fill="white"/>
  <path d="M30.5 23.5c0-4.8 3.9-7.1 4.1-7.3-2.2-3.2-5.7-3.7-6.9-3.7-2.9-.3-5.7 1.7-7.2 1.7-1.5 0-3.8-1.7-6.3-1.6-3.2.1-6.2 1.9-7.8 4.8-3.4 5.9-.9 14.6 2.4 19.4 1.6 2.4 3.5 5 6 4.9 2.4-.1 3.3-1.5 6.2-1.5s3.7 1.5 6.2 1.4c2.6-.1 4.2-2.3 5.8-4.7 1.9-2.8 2.6-5.5 2.7-5.6-.1 0-5.1-2-5.2-7.8zm-4.6-13.6c1.3-1.6 2.2-3.8 2-6-1.9.1-4.2 1.3-5.6 2.9-1.2 1.4-2.3 3.7-2 5.9 2.1.2 4.3-1.1 5.6-2.8z" fill="#000"/>
</svg>